<?xml version="1.0" encoding="UTF-8"?>
<svg id="Layer_1" xmlns="http://www.w3.org/2000/svg" version="1.1" viewBox="0 0 1366 768">
  <!-- Generator: Adobe Illustrator 29.0.1, SVG Export Plug-In . SVG Version: 2.1.0 Build 192)  -->
  <defs>
    <style>
      .st0 {
        fill: #ceae2c;
      }

      .st1 {
        fill: #004742;
      }
    </style>
  </defs>
  <path class="st1" d="M244.6,429.7c13.2,0,24.5-5.2,30.9-12.2l38.7,22.2c-15.8,21.9-39.6,33.2-70.2,33.2-55.1,0-89.3-37.1-89.3-85.1s34.8-85.1,85.7-85.1,81.8,36.4,81.8,85.1-.6,13.2-1.9,19.3h-114.4c6.1,16.8,20.9,22.6,38.7,22.6ZM274.2,371.1c-5.2-18.7-19.7-25.5-34.2-25.5s-30.6,9-35.1,25.5h69.3Z"/>
  <path class="st1" d="M437.6,468.4l-30-42.5-30,42.5h-55.4l57.7-81.9-55.7-79.3h55.4l28,40,28-40h55.4l-55.7,79.3,57.7,81.9h-55.4Z"/>
  <path class="st1" d="M664.8,307.2v161.1h-48.3v-15.1c-10.6,12.2-26.4,19.7-48,19.7-42.2,0-77-37.1-77-85.1s34.8-85.1,77-85.1,37.4,7.4,48,19.7v-15.1h48.3ZM616.5,387.8c0-24.2-16.1-39.3-38.3-39.3s-38.3,15.1-38.3,39.3,16.1,39.3,38.3,39.3,38.3-15.1,38.3-39.3Z"/>
  <path class="st1" d="M941.9,369.4v98.9h-48.3v-94.7c0-16.1-7.7-26.4-23.2-26.4s-25.1,11.3-25.1,30.3v90.9h-48.3v-94.7c0-16.1-7.7-26.4-23.2-26.4s-25.1,11.3-25.1,30.3v90.9h-48.3v-161.1h48.3v14.8c7.4-11,21.6-19.3,43.2-19.3s33.2,7.7,42.2,21.3c9-12.9,23.8-21.3,46.7-21.3,37.1,0,61.2,26.4,61.2,66.7Z"/>
  <path class="st1" d="M975.1,233.1h48.3v235.2h-48.3v-235.2Z"/>
  <path class="st1" d="M1212,307.2l-55.1,156.3c-18,51.2-46.7,71.5-91.8,69.3v-45.1c22.6,0,33.2-7.1,40.3-26.7l-64.1-153.7h53.2l35.8,98.6,30.3-98.6h51.6Z"/>
  <polygon class="st0" points="435.4 386.5 407.6 347.2 379.6 307.2 324.2 307.2 379.9 386.5 322.3 468.4 377.7 468.4 407.6 425.8 435.4 386.5"/>
</svg>